name C:\Users\u0101727\Documents\MyRepositories\upper-imu-dc\Results\main_tracking\Case_70\kinematics.mot
datacolumns 10
datarows 56
range 6.30000000 6.85000000
endheader 
time	clav_prot	clav_elev	scapula_abduction	scapula_elevation	scapula_upward_rot	scapula_winging	plane_elv	shoulder_elv	axial_rot	
          6.30000000	        -42.05705618	          9.45177419	         -4.13250703	         -2.21201591	         72.85939049	        -11.97702287	         29.16371818	         88.61612163	          2.09131020	
          6.31000000	        -42.05440145	          9.42487102	         -3.98131634	         -2.21938897	         73.03312116	        -11.95281631	         29.39259185	         88.63623673	          2.05840490	
          6.32000000	        -42.05117610	          9.39797286	         -3.82899380	         -2.22651868	         73.20716565	        -11.92799057	         29.62236280	         88.65377744	          2.02964507	
          6.33000000	        -42.04768698	          9.37122634	         -3.67598443	         -2.23332096	         73.38166092	        -11.90274797	         29.85283821	         88.66870979	          2.00485720	
          6.34000000	        -42.04424624	          9.34477685	         -3.52276056	         -2.23971388	         73.55672158	        -11.87729497	         30.08377207	         88.68102827	          1.98377494	
          6.35000000	        -42.04116903	          9.31876791	         -3.36982748	         -2.24561880	         73.73242764	        -11.85184198	         30.31487486	         88.69076577	          1.96602716	
          6.36000000	        -42.03876917	          9.29333742	         -3.21772281	         -2.25096340	         73.90881508	        -11.82660114	         30.54582101	         88.69800257	          1.95112913	
          6.37000000	        -42.03735249	          9.26861087	         -3.06700774	         -2.25568632	         74.08587024	        -11.80178153	         30.77625364	         88.70287372	          1.93848008	
          6.38000000	        -42.03720765	          9.24469216	         -2.91825017	         -2.25974300	         74.26352834	        -11.77758210	         31.00578732	         88.70557407	          1.92736955	
          6.39000000	        -42.03859572	          9.22165433	         -2.77200253	         -2.26311121	         74.44167610	        -11.75418334	         31.23401019	         88.70635992	          1.91699525	
          6.40000000	        -42.04174040	          9.19953315	         -2.62877832	         -2.26579443	         74.62015794	        -11.73173974	         31.46048757	         88.70554635	          1.90649332	
          6.41000000	        -42.04682091	          9.17832634	         -2.48903273	         -2.26782135	         74.79878509	        -11.71037487	         31.68476770	         88.70350002	          1.89498034	
          6.42000000	        -42.05396842	          9.15799972	         -2.35314981	         -2.26924091	         74.97734589	        -11.69018008	         31.90639077	         88.70062820	          1.88160291	
          6.43000000	        -42.06326522	          9.13849859	         -2.22143691	         -2.27011390	         75.15561474	        -11.67121621	         32.12490023	         88.69736498	          1.86558768	
          6.44000000	        -42.07474721	          9.11975982	         -2.09412640	         -2.27050460	         75.33335905	        -11.65351741	         32.33985247	         88.69415926	          1.84628394	
          6.45000000	        -42.08840730	          9.10172148	         -1.97138033	         -2.27047416	         75.51034367	        -11.63709525	         32.55082465	         88.69146530	          1.82319188	
          6.46000000	        -42.10419774	          9.08432832	         -1.85329372	         -2.27007692	         75.68633316	        -11.62194107	         32.75742054	         88.68973390	          1.79597408	
          6.47000000	        -42.12203152	          9.06753281	         -1.73989468	         -2.26935954	         75.86109470	        -11.60802666	         32.95927275	         88.68940263	          1.76445141	
          6.48000000	        -42.14178372	          9.05129338	         -1.63114109	         -2.26836176	         76.03440437	        -11.59530362	         33.15604271	         88.69088399	          1.72858704	
          6.49000000	        -42.16329357	          9.03557200	         -1.52691502	         -2.26711729	         76.20605743	        -11.58370252	         33.34742075	         88.69455117	          1.68846299	
          6.50000000	        -42.18636762	          9.02033301	         -1.42701817	         -2.26565376	         76.37588050	        -11.57313261	         33.53312868	         88.70072316	          1.64425346	
          6.51000000	        -42.21078388	          9.00554429	         -1.33117073	         -2.26399118	         76.54374210	        -11.56348285	         33.71292632	         88.70965067	          1.59619783	
          6.52000000	        -42.23629680	          8.99118046	         -1.23901502	         -2.26213941	         76.70955985	        -11.55462433	         33.88662111	         88.72150605	          1.54457541	
          6.53000000	        -42.26264350	          8.97722637	         -1.15012433	         -2.26009567	         76.87330391	        -11.54641386	         34.05407748	         88.73637958	          1.48968251	
          6.54000000	        -42.28955002	          8.96367900	         -1.06401480	         -2.25784369	         77.03499602	        -11.53869781	         34.21522395	         88.75428108	          1.43181238	
          6.55000000	        -42.31673669	          8.95054605	         -0.98015897	         -2.25535523	         77.19470362	        -11.53131523	         34.37005755	         88.77514497	          1.37123792	
          6.56000000	        -42.34392196	          8.93784119	         -0.89799802	         -2.25259431	         77.35253118	        -11.52409957	         34.51864425	         88.79883806	          1.30819747	
          6.57000000	        -42.37082384	          8.92557554	         -0.81695035	         -2.24952372	         77.50860956	        -11.51687848	         34.66111478	         88.82516876	          1.24288479	
          6.58000000	        -42.39715889	          8.91374685	         -0.73641816	         -2.24611352	         77.66308218	        -11.50947196	         34.79765792	         88.85389847	          1.17544253	
          6.59000000	        -42.42263928	          8.90233022	         -0.65579192	         -2.24234829	         77.81608997	        -11.50169011	         34.92851106	         88.88475350	          1.10596087	
          6.60000000	        -42.44696894	          8.89127173	         -0.57445500	         -2.23823270	         77.96775530	        -11.49333138	         35.05395032	         88.91743790	          1.03447993	
          6.61000000	        -42.46984069	          8.88048564	         -0.49178978	         -2.23379454	         78.11816696	        -11.48418223	         35.17428074	         88.95164625	          0.96099554	
          6.62000000	        -42.49093613	          8.86985506	         -0.40718659	         -2.22908553	         78.26736887	        -11.47401908	         35.28982683	         88.98707593	          0.88546717	
          6.63000000	        -42.50992971	          8.85923477	         -0.32005600	         -2.22418046	         78.41535399	        -11.46261260	         35.40092411	         89.02343784	          0.80782671	
          6.64000000	        -42.52649602	          8.84845570	         -0.22984298	         -2.21917513	         78.56206340	        -11.44973385	         35.50791280	         89.06046376	          0.72798704	
          6.65000000	        -42.54031899	          8.83733029	         -0.13604223	         -2.21418341	         78.70738833	        -11.43516136	         35.61113387	         89.09790943	          0.64584956	
          6.66000000	        -42.55110410	          8.82565743	         -0.03821497	         -2.20933463	         78.85117670	        -11.41868932	         35.71092392	         89.13555850	          0.56131089	
          6.67000000	        -42.55859092	          8.81322740	          0.06399522	         -2.20477052	         78.99324171	        -11.40013572	         35.80761033	         89.17322586	          0.47426840	
          6.68000000	        -42.56256404	          8.79982667	          0.17084890	         -2.20064233	         79.13336989	        -11.37934938	         35.90150635	         89.21075981	          0.38462451	
          6.69000000	        -42.56286183	          8.78524291	          0.28250148	         -2.19710737	         79.27133014	        -11.35621565	         35.99290761	         89.24804381	          0.29228991	
          6.70000000	        -42.55938257	          8.76927040	          0.39899702	         -2.19432519	         79.40688101	        -11.33066070	         36.08208814	         89.28499620	          0.19718577	
          6.71000000	        -42.55208901	          8.75171540	          0.52026478	         -2.19245369	         79.53977838	        -11.30265465	         36.16929668	         89.32156886	          0.09924521	
          6.72000000	        -42.54101107	          8.73240418	          0.64611787	         -2.19164309	         79.66978256	        -11.27221428	         36.25475355	         89.35774465	         -0.00158553	
          6.73000000	        -42.52624688	          8.71119378	          0.77625294	         -2.19202821	         79.79666400	        -11.23940546	         36.33864818	         89.39353322	         -0.10534561	
          6.74000000	        -42.50796176	          8.68798470	          0.91025100	         -2.19371938	         79.92020653	        -11.20434499	         36.42113714	         89.42896585	         -0.21205765	
          6.75000000	        -42.48638449	          8.66273337	          1.04758087	         -2.19679341	         80.04020814	        -11.16720127	         36.50234306	         89.46408987	         -0.32172527	
          6.76000000	        -42.46180096	          8.63546195	          1.18760659	         -2.20128655	         80.15647974	        -11.12819267	         36.58235428	         89.49896382	         -0.43433033	
          6.77000000	        -42.43454529	          8.60626330	          1.32959873	         -2.20719044	         80.26884203	        -11.08758359	         36.66122507	         89.53365296	         -0.54982992	
          6.78000000	        -42.40498895	          8.57530156	          1.47274984	         -2.21445121	         80.37712167	        -11.04567827	         36.73897741	         89.56822458	         -0.66815314	
          6.79000000	        -42.37352959	          8.54280887	          1.61619279	         -2.22297078	         80.48114908	        -11.00281328	         36.81560491	         89.60274241	         -0.78919727	
          6.80000000	        -42.34058068	          8.50907898	          1.75902119	         -2.23261012	         80.58075969	        -10.95934921	         36.89107888	         89.63725976	         -0.91282318	
          6.81000000	        -42.30656262	          8.47445791	          1.90031062	         -2.24319424	         80.67579834	        -10.91566207	         36.96535559	         89.67181164	         -1.03884960	
          6.82000000	        -42.27189517	          8.43933178	          2.03913980	         -2.25451905	         80.76612576	        -10.87213453	         37.03838410	         89.70640764	         -1.16704558	
          6.83000000	        -42.23699143	          8.40411237	          2.17461021	         -2.26635970	         80.85162562	        -10.82914734	         37.11011357	         89.74102734	         -1.29712092	
          6.84000000	        -42.20225272	          8.36922203	          2.30586298	         -2.27847979	         80.93221007	        -10.78707142	         37.18049824	         89.77561943	         -1.42871470	
          6.85000000	        -42.16806364	          8.33507796	          2.43209349	         -2.29064118	         81.00782246	        -10.74626034	         37.24949824	         89.81010429	         -1.56138318	
